<svg height="32" viewBox="0 0 32 32" width="32" id="svg3" sodipodi:docname="defaultparastyle.svg" inkscape:version="1.4.3 (0d15f75042, 2025-12-25)" inkscape:export-filename="defaultparastyle.png" inkscape:export-xdpi="96" inkscape:export-ydpi="96" xmlns:inkscape="http://www.inkscape.org/namespaces/inkscape" xmlns:sodipodi="http://sodipodi.sourceforge.net/DTD/sodipodi-0.dtd" xmlns="http://www.w3.org/2000/svg" xmlns:svg="http://www.w3.org/2000/svg"><defs id="defs3"/><sodipodi:namedview id="namedview3" pagecolor="#ffffff" bordercolor="#000000" borderopacity=".25" inkscape:showpageshadow="2" inkscape:pageopacity="0" inkscape:pagecheckerboard="0" inkscape:deskcolor="#d1d1d1" showgrid="true" showguides="true" inkscape:zoom="26.623515" inkscape:cx="8.7141011" inkscape:cy="18.76161" inkscape:window-width="2560" inkscape:window-height="1354" inkscape:window-x="0" inkscape:window-y="0" inkscape:window-maximized="1" inkscape:current-layer="svg3"><inkscape:grid id="grid3" units="px" originx="0" originy="0" spacingx="1" spacingy="1" empcolor="#0099e5" empopacity=".30196078" color="#0099e5" opacity=".14901961" empspacing="5" enabled="true" visible="true"/></sodipodi:namedview><path d="m11 3c-5 0-8 3-8 8 0 4.554615 5 7 8 7v11h2V6h2v23h2V3z" fill="#efefef" id="path1-3" sodipodi:nodetypes="ssccccccccs" style="fill:#2e3436;fill-opacity:1"/><g id="rect5-3" style="opacity:1"><path style="baseline-shift:baseline;display:inline;overflow:visible;vector-effect:none;fill:#f0f0f0;stroke-linecap:round;stroke-linejoin:round;enable-background:accumulate;stop-color:#000000;stop-opacity:1" d="m23.50416 24.516729h.99168v2.407776h-.99168z" id="path1"/><path id="path2" style="baseline-shift:baseline;display:inline;overflow:visible;vector-effect:none;fill:#2e3436;stroke-linecap:round;stroke-linejoin:round;enable-background:accumulate;stop-color:#000000;stop-opacity:1;fill-opacity:1" d="m23.998047 17c-.795207.0012-1.557423.317984-2.119141.880859l-2 1.998047C19.316269 20.441423 19.00012 21.204396 19 22v4c0 1.656854 1.343146 3 3 3h4.003906c1.65684-.007 3.003062-1.343161 2.996094-3v-4c-12e-5-.795604-.316269-1.558577-.878906-2.121094l-2-2.003906C25.55746 17.313317 24.793767 16.998566 23.998047 17zm.0039 2c.264921-478e-6.519206.104186.707031.291016l1.998047 2.001953C26.894577 21.480474 26.99996 21.734799 27 22v4c.0023.552279-.443815.997676-.996094 1H25V23.501953C25.00044 23.216683 24.781364 23.000638 24.496094 23H23.503906C23.218636 23.000638 22.99956 23.242073 23 23.527344V27h-1c-.552285.0-1-.447715-1-1v-4c4e-5-.265201.105423-.519526.292969-.707031l2.001953-2C23.482427 19.105423 23.736752 19.00004 24.001953 19z" sodipodi:nodetypes="ccccssccccccccccccccccccsscccc"/></g></svg>