<svg viewBox="0 0 24 24" id="svg1" sodipodi:docname="lc_textbodyparastyle.svg" inkscape:version="1.4.3 (0d15f75042, 2025-12-25)" xmlns:inkscape="http://www.inkscape.org/namespaces/inkscape" xmlns:sodipodi="http://sodipodi.sourceforge.net/DTD/sodipodi-0.dtd" xmlns="http://www.w3.org/2000/svg" xmlns:svg="http://www.w3.org/2000/svg"><defs id="defs1"/><sodipodi:namedview id="namedview1" pagecolor="#ffffff" bordercolor="#000000" borderopacity=".25" inkscape:showpageshadow="2" inkscape:pageopacity="0" inkscape:pagecheckerboard="0" inkscape:deskcolor="#d1d1d1" showgrid="true" inkscape:zoom="38.462238" inkscape:cx="8.9958364" inkscape:cy="11.764786" inkscape:window-width="2560" inkscape:window-height="1354" inkscape:window-x="0" inkscape:window-y="0" inkscape:window-maximized="1" inkscape:current-layer="svg1"><inkscape:grid id="grid1" units="px" originx="0" originy="0" spacingx="1" spacingy="1" empcolor="#0099e5" empopacity=".30196078" color="#0099e5" opacity=".14901961" empspacing="5" enabled="true" visible="true"/></sodipodi:namedview><path d="M8 2C4 2 2 5.1715729 2 8c0 3 2 6 5 6v8H9V5h2v17h2V2z" fill="#efefef" id="path1" sodipodi:nodetypes="csccccccccc" style="fill:#2d3336;fill-opacity:1"/><path id="rect3" style="fill:#2e3436;fill-opacity:1;stroke-width:1.82573" d="M18.5 10A3.5 3.5.0 0015 13.5v5A3.5 3.5.0 0018.5 22 3.5 3.5.0 0022 18.5v-5A3.5 3.5.0 0018.5 10zm0 2A1.5 1.5.0 0120 13.5v5A1.5 1.5.0 0118.5 20 1.5 1.5.0 0117 18.5v-5A1.5 1.5.0 0118.5 12z"/></svg>