<svg viewBox="0 0 16 16" id="svg1" sodipodi:docname="sc_textbodyparastyle.svg" inkscape:version="1.4.3 (0d15f75042, 2025-12-25)" inkscape:export-filename="sc_textbodyparastyle.png" inkscape:export-xdpi="96" inkscape:export-ydpi="96" xmlns:inkscape="http://www.inkscape.org/namespaces/inkscape" xmlns:sodipodi="http://sodipodi.sourceforge.net/DTD/sodipodi-0.dtd" xmlns="http://www.w3.org/2000/svg" xmlns:svg="http://www.w3.org/2000/svg"><defs id="defs1"/><sodipodi:namedview id="namedview1" pagecolor="#ffffff" bordercolor="#000000" borderopacity=".25" inkscape:showpageshadow="2" inkscape:pageopacity="0" inkscape:pagecheckerboard="0" inkscape:deskcolor="#d1d1d1" showgrid="true" inkscape:zoom="27.288931" inkscape:cx="17.113166" inkscape:cy="10.205603" inkscape:window-width="2560" inkscape:window-height="1354" inkscape:window-x="0" inkscape:window-y="0" inkscape:window-maximized="1" inkscape:current-layer="svg1"><inkscape:grid id="grid1" units="px" originx="0" originy="0" spacingx="1" spacingy="1" empcolor="#0099e5" empopacity=".30196078" color="#0099e5" opacity=".14901961" empspacing="5" enabled="true" visible="true"/></sodipodi:namedview><path d="M4 2C2 2 0 3 0 5.5S2 9 4 9v5H6V4H7V14H9V2z" fill="#efefef" id="path1" sodipodi:nodetypes="ssccccccccs" style="fill:#2e3436;fill-opacity:1"/><path id="rect3-5-9" style="fill:#2e3436;fill-opacity:1;stroke-width:1.63299" d="M13 4A3 3 0 0010 7v4a3 3 0 003 3 3 3 0 003-3V7A3 3 0 0013 4zm0 2a1.0000001 1 0 011 1v4a1.0000001 1 0 01-1 1 1.0000001 1 0 01-1-1V7a1.0000001 1 0 011-1z"/></svg>